<?xml version="1.0" encoding="UTF-8" standalone="no"?>
<!-- Created with Inkscape (http://www.inkscape.org/) -->
<svg
   xmlns:svg="http://www.w3.org/2000/svg"
   xmlns="http://www.w3.org/2000/svg"
   version="1.0"
   width="142"
   height="169pt"
   id="svg2">
  <defs
     id="defs7" />
  <path
     d="M 63.858078,0.5277112 L 63.858078,21.672888 L 39.188704,21.672888 L 39.188704,36.621676 L 63.858078,36.621676 L 63.858078,54.93975 L 0.5,54.93975 L 0.5,68.95908 L 63.858078,68.95908 L 63.858078,158.61307 L 45.191455,150.01558 L 39.343613,162.05981 L 63.858078,173.83294 L 63.858078,211.05 L 78.806866,211.05 L 78.806866,181.03625 L 98.983856,190.7181 L 104.21207,177.1635 L 78.806866,165.46782 L 78.806866,68.95908 L 141.8164,68.95908 L 141.8164,54.93975 L 78.806866,54.93975 L 78.806866,36.621676 L 103.63115,36.621676 L 103.63115,21.672888 L 78.806866,21.672888 L 78.806866,0.5277112 L 63.858078,0.5277112 z "
     style="opacity:0.9;fill:#000080;fill-opacity:1;stroke:#000000;stroke-width:0;stroke-miterlimit:4;stroke-dasharray:none;stroke-opacity:0"
     id="rect2365" />
</svg>
